<?xml version="1.0" encoding="UTF-8" standalone="no"?>
<svg
   xmlns:dc="http://purl.org/dc/elements/1.1/"
   xmlns:cc="http://creativecommons.org/ns#"
   xmlns:rdf="http://www.w3.org/1999/02/22-rdf-syntax-ns#"
   xmlns:svg="http://www.w3.org/2000/svg"
   xmlns="http://www.w3.org/2000/svg"
   width="252.83476mm"
   height="81.033607mm"
   viewBox="0 0 895.87121 287.12696"
   id="svg2"
   version="1.1">
  <defs
     id="defs4" />
  <metadata
     id="metadata7">
    <rdf:RDF>
      <cc:Work
         rdf:about="">
        <dc:format>image/svg+xml</dc:format>
        <dc:type
           rdf:resource="http://purl.org/dc/dcmitype/StillImage" />
        <dc:title></dc:title>
      </cc:Work>
    </rdf:RDF>
  </metadata>
  <g
     id="g4751"
     style="display:inline"
     transform="translate(-51.02096,-395.7832)">
    <g
       style="display:inline"
       id="g4753" />
    <g
       style="display:inline"
       id="g4757">
      <g
         id="g4784"
         transform="translate(184,48)">
        <path
           style="font-style:normal;font-variant:normal;font-weight:normal;font-stretch:normal;font-size:medium;line-height:125%;font-family:Anton;-inkscape-font-specification:Anton;letter-spacing:0px;word-spacing:0px;display:inline;fill:#ffffff;fill-opacity:1;stroke:none;stroke-width:1px;stroke-linecap:butt;stroke-linejoin:miter;stroke-opacity:1"
           d="m 520.67905,600.05469 c -0.74819,1.14433 -1.50029,2.25312 -2.25587,3.33008 h 29.19726 c 0.0376,-1.07684 0.1039,-2.19113 0.18982,-3.33008 z m 35.03959,28.17578 c -1.19582,-0.99653 -2.26368,-2.11249 -3.21984,-3.33203 h -56.16993 c -2.00572,1.2245 -4.04415,2.3323 -6.11414,3.33203 z m -154.19336,0 c -1.32127,-0.99962 -2.52019,-2.10771 -3.59094,-3.33203 h -52.55273 c -2.27823,1.22337 -4.60961,2.33319 -6.98914,3.33203 z m -63.13281,0 H 274.6659 c 6.73414,4.44372 16.37699,6.67969 28.96808,6.67969 12.59104,0 24.17225,-2.23597 34.75849,-6.67969 z m -63.72657,0 c -1.51365,-0.99884 -2.88297,-2.10866 -4.1007,-3.33203 h -56.61914 c -2.40356,1.25979 -4.89975,2.37002 -7.48719,3.33203 z m -68.20703,0 H 115.3827 l -2.0258,4.67383 h 65.1582 c 10.27638,0 19.58585,-1.56635 27.94377,-4.67383 z m -91.07617,0 1.44422,-3.33203 h -15.21875 l -1.0907,3.33203 z m -14.86523,0 H 54.982313 l -1.576581,4.67383 h 45.583982 z m -45.535157,0 1.123908,-3.33203 H 22.282 l -1.711796,3.33203 z m -34.412109,0 h -4.03125 l 1.444218,-3.33203 H 22.282 l 3.128678,-6.0918 h -46.314453 l -7.627994,14.09766 h 46.701172 z m -41.473979,-9.42383 1.803593,-3.33203 h -8.72461 l -1.444218,3.33203 z m -8.365235,0 h -97.59961 l -6.11042,14.09766 h 97.599614 z m -96.15539,-3.33203 h 97.599608 l 8.323303,-19.20313 h -49.5 L 8.5384564,417.375 H -39.561152 Z m 106.324218,0 h 46.222656 l 8.96069,-17.44727 h 29.083984 l -5.884522,17.44727 H 104.69083 L 169.47596,417.375 H 88.097051 Z m 123.791012,0 -1.0907,3.33203 h 15.86719 l 1.44421,-3.33203 z m 16.2207,0 H 227.3627 c 0.0505,-0.0462 0.10372,-0.0883 0.15412,-0.13477 3.77072,-3.50095 7.41532,-7.49477 10.93759,-11.95507 h -50.9375 l 1.44337,-3.33008 h 52.04102 c 7.44097,-10.08772 14.30971,-22.38465 20.60303,-36.9043 6.0901,-14.0508 8.93258,-25.34025 8.52856,-33.87109 -0.40401,-8.53084 -5.13268,-13.9668 -14.18519,-16.3086 18.14638,-4.01452 31.67887,-16.31038 40.59651,-36.88476 l 4.13203,-9.53321 c 7.54013,-17.39622 8.96934,-29.94223 4.28767,-37.63671 -4.49523,-7.69449 -15.50597,-11.54102 -33.03092,-11.54102 h -65.1582 z m 120.08978,-15.41992 c -0.84106,1.14023 -1.69116,2.24647 -2.54689,3.33008 h 24.66602 c 0.0261,-1.08745 0.0817,-2.19317 0.18782,-3.33008 z m 22.30664,0 h 110.91602 c 5.78852,-7.50495 10.79403,-16.12549 15.01472,-25.86328 l 44.47956,-102.6211 c 8.04763,-18.56713 9.06782,-32.53514 3.06036,-41.90234 -5.93494,-9.53447 -18.59781,-14.30078 -37.98708,-14.30078 -19.38931,0 -36.18391,4.76631 -50.38401,14.30078 -14.12758,9.3672 -25.2139,23.33521 -33.26153,41.90234 l -44.47956,102.6211 c -4.20832,9.70924 -6.65694,18.32735 -7.35848,25.86328 z m 110.91602,0 c -0.87826,1.13869 -1.77901,2.24278 -2.69337,3.33008 h 21.76758 c 0.1459,-1.07775 0.32418,-2.18667 0.53907,-3.33008 z m 134.19147,15.41992 c -1.19516,1.19221 -2.4,2.29501 -3.61218,3.33203 h 44.53125 c -0.34342,-1.04735 -0.64149,-2.15382 -0.88392,-3.33203 z m -114.17859,3.33203 c -0.37952,-1.04278 -0.69968,-2.14247 -0.92493,-3.33203 h -33.94336 c -1.4008,1.15679 -2.83567,2.26543 -4.29968,3.33203 z m -39.16797,0 h -88.90625 c 0.0479,0.0975 0.0879,0.20009 0.13695,0.29688 1.12559,2.15666 2.55826,4.07966 4.26562,5.79492 h 74.81641 c 3.19426,-1.71526 6.29393,-3.63826 9.28906,-5.79492 0.13431,-0.0967 0.26443,-0.19942 0.39821,-0.29688 z m -88.90625,0 c -0.52564,-1.06925 -0.98725,-2.17805 -1.3761,-3.33203 H 227.3627 c -1.28248,1.17332 -2.60807,2.2772 -3.96374,3.33203 z m -42.76367,0 H 119.46732 l -2.6404,6.0918 h 97.11914 c 3.32796,-1.7443 6.47747,-3.77665 9.4529,-6.0918 z m 41.38757,-3.33203 h 94.58203 c 4.35728,-3.59825 8.41079,-7.62913 12.16204,-12.08984 H 263.12044 c -0.10625,4.44015 0.44681,8.47133 1.66609,12.08984 z m -161.1864,3.33203 H 58.160678 l -2.054457,6.0918 h 45.501949 z m -45.439452,0 1.121948,-3.33203 H 27.122474 l -1.711796,3.33203 z M 239.40027,450.49414 h 10.06836 c 6.89811,0 8.82554,3.51171 5.78051,10.53711 l -9.35271,21.57813 c -2.17505,5.01814 -4.62577,8.94935 -7.34977,11.79296 -2.6515,2.67635 -6.0276,4.01563 -10.12919,4.01563 h -9.78906 z m -128.30921,3.51172 h 2.23828 L 76.429746,563.65234 H 54.617247 Z m 270.79728,1.00391 c 4.28802,0 6.43254,1.50669 6.43256,4.51757 0.25896,2.84362 -0.62752,6.60741 -2.65759,11.29102 l -45.67573,105.38086 c -2.61004,6.02177 -5.3849,10.70535 -8.32641,14.05078 -2.94152,3.34543 -6.55675,5.01758 -10.84472,5.01758 -4.47447,0 -6.86169,-1.58943 -7.16208,-4.76758 -0.30041,-3.17816 0.89192,-7.86174 3.57447,-14.05078 L 362.7962,471.31836 c 4.71258,-10.87265 11.07541,-16.30859 19.09214,-16.30859 z m -177.94083,77.27929 h 8.94922 c 5.40663,0 8.41109,1.6741 9.01186,5.01953 0.78719,3.34543 -0.233,8.27915 -3.06055,14.80274 l -11.6367,26.84765 c -4.64009,10.70538 -13.20468,16.05669 -25.69584,16.05664 l -4.6475,-0.25 z"
           id="path4755" />
        <path
           id="path4759"
           d="m 549.01446,347.7832 c -13.13742,0 -26.00923,4.82836 -38.61761,14.48828 -12.49819,9.4057 -23.15599,24.27857 -31.97061,44.61524 l -13.88261,32.0293 c -3.63603,8.38888 -6.41372,15.38007 -8.33246,20.97265 -1.64013,5.33837 -2.46681,10.54865 -2.48089,15.63281 0.26453,4.82996 2.01217,9.15172 5.24387,12.96485 -7.39192,2.28787 -14.64437,7.75341 -21.75915,16.39648 -7.0046,8.38888 -12.82113,17.92287 -17.44879,28.59961 l -16.52725,38.13086 c -4.79373,11.05987 -7.91433,20.52722 -9.40171,28.44141 h 126.8418 c 5.15623,-7.88627 10.13935,-17.3548 14.94467,-28.44141 l 16.85824,-38.89453 c 4.73787,-10.93095 7.79659,-21.0982 9.17849,-30.50391 1.49209,-9.65991 -0.94391,-15.88926 -7.31119,-18.68554 6.38766,-1.52526 12.8539,-7.11743 19.39883,-16.77735 6.71338,-9.65991 11.99774,-18.93864 15.85413,-27.83593 l 13.88261,-32.0293 c 8.81462,-20.33667 11.04965,-35.20954 6.70499,-44.61524 -4.06606,-9.65992 -12.58332,-14.48828 -25.55231,-14.48828 z m -1.20456,252.27149 h 116.07032 c 6.61912,-9.24172 12.75293,-20.37006 18.39988,-33.39844 l 17.68448,-40.80078 c 9.25534,-21.35349 12.71269,-37.87673 10.37025,-49.57031 -2.17403,-11.69358 -12.27176,-17.54102 -30.2936,-17.54102 -9.26357,0 -17.06371,0.50856 -23.39943,1.52539 -6.1673,1.01683 -12.38266,2.92442 -18.64752,5.7207 8.48406,-19.57403 17.48548,-34.3183 27.00389,-44.23242 9.68683,-9.91412 20.42519,-14.87109 32.21518,-14.87109 h 43.20117 l 22.47766,-51.85938 c -11.21239,-4.82995 -26.16653,-7.24414 -44.86209,-7.24414 -16.00072,0 -31.34487,4.70171 -46.03261,14.10742 -14.40916,9.1515 -29.21566,24.65958 -44.41794,46.52149 -15.03385,21.86191 -30.59411,51.34848 -46.68079,88.46289 -15.53575,35.84337 -25.55013,63.80622 -30.04385,83.88867 -1.61187,7.20345 -2.6195,13.62479 -3.045,19.29102 z m 113.60742,3.33008 H 547.62044 c -0.16048,4.59667 0.11722,8.62489 0.83015,12.08984 h 102.10743 c 3.74875,-3.52818 7.37105,-7.547 10.8593,-12.08984 z m -14.60625,15.42187 h -97.47656 c 0.51448,1.56907 1.12894,3.00782 1.87007,4.2832 0.40082,0.63101 0.8391,1.22812 1.29422,1.8086 h 85.99609 c 2.81195,-1.79209 5.58494,-3.8178 8.31618,-6.0918 z m -14.11782,9.42383 h -76.97461 c 5.34345,4.45292 13.07769,6.67969 23.20635,6.67969 h 26.52734 c 9.45284,0 18.53278,-2.23352 27.24092,-6.67969 z m -142.47852,0 h -88.68945 c 5.87771,4.44682 14.22427,6.67969 25.05987,6.67969 h 34.10547 c 10.47797,0 20.31745,-2.23321 29.52411,-6.67969 z m -96.91655,-24.8457 c -0.62678,4.63068 -0.63356,8.67132 0.0137,12.08984 H 508.4154 c 3.40525,-3.39684 6.74062,-7.43315 10.00774,-12.08984 z m 111.50508,15.42187 H 394.23685 c 0.35544,0.97663 0.75531,1.90993 1.24607,2.75781 0.7252,1.19329 1.5478,2.30074 2.45142,3.33399 h 98.39453 c 1.69249,-1.03327 3.36475,-2.14067 5.01147,-3.33399 1.1628,-0.84263 2.31538,-1.7761 3.46292,-2.75781 z m 29.76951,-214.9707 h 15.91601 c 3.87386,0 6.18649,1.27042 6.93738,3.8125 1.0295,2.28787 -0.16381,7.37149 -3.57947,15.25195 l -6.44565,14.87109 c -3.52585,8.13468 -6.81792,13.98211 -9.87633,17.54102 -3.0584,3.55891 -7.0288,5.33789 -11.91323,5.33789 h -15.66406 c -4.54758,0 -7.08757,-1.52567 -7.61809,-4.57617 -0.3621,-3.05049 1.44106,-9.15123 5.40764,-18.30274 l 6.44565,-14.87109 c 3.30548,-7.62625 6.43547,-12.70987 9.39002,-15.25195 2.95455,-2.54208 6.62099,-3.8125 11.00013,-3.8125 z m 82.26701,110.96094 h 26.52734 c 6.56871,0 10.39997,1.65233 11.49403,4.95703 1.26248,3.3047 -0.14626,9.66069 -4.22303,19.0664 l -6.11464,14.10742 c -3.41567,7.88046 -7.04377,13.72789 -10.88609,17.54102 -3.73213,3.55891 -8.04053,5.33789 -12.92496,5.33789 h -7.32617 c -5.72657,0 -9.50294,-1.77898 -11.32895,-5.33789 -1.65758,-3.55892 -1.37154,-9.65965 0.85882,-18.30273 2.34053,-8.89729 6.98214,-21.35403 13.92365,-37.36914 z m -131.02249,1.52539 h 15.91601 c 4.716,0 7.42654,1.90757 8.13178,5.7207 0.8737,3.81312 -0.12199,9.0234 -2.98674,15.63281 l -9.09028,20.97266 c -3.08511,7.11783 -6.35352,12.3281 -9.80706,15.63281 -3.45351,3.30471 -8.04306,4.95703 -13.76963,4.95703 h -15.66406 c -5.22129,0 -8.35071,-1.52372 -9.38651,-4.57422 -1.03581,-3.05049 0.0991,-8.38937 3.40461,-16.01562 l 9.09028,-20.97266 c 2.86475,-6.60941 6.46922,-11.81969 10.81681,-15.63281 4.51605,-3.81313 8.96565,-5.7207 13.34479,-5.7207 z"
           style="font-style:normal;font-variant:normal;font-weight:normal;font-stretch:normal;font-size:medium;line-height:125%;font-family:Anton;-inkscape-font-specification:Anton;letter-spacing:0px;word-spacing:0px;display:inline;fill:#ef3235;fill-opacity:1;stroke:none;stroke-width:1px;stroke-linecap:butt;stroke-linejoin:miter;stroke-opacity:1" />
      </g>
    </g>
  </g>
</svg>
